<svg id="visual" viewBox="0 0 540 960" width="540" height="960" xmlns="http://www.w3.org/2000/svg" xmlns:xlink="http://www.w3.org/1999/xlink" version="1.1"><rect width="540" height="960" fill="#000"></rect><g><g transform="translate(307 89)"><path d="M19.5 -11.3C22.6 -5.9 20.6 2.5 16.5 9.5C12.4 16.5 6.2 22.2 -1.4 23C-9.1 23.9 -18.1 19.8 -21.4 13.2C-24.8 6.6 -22.4 -2.5 -17.9 -8.8C-13.3 -15.1 -6.7 -18.7 0.8 -19.1C8.2 -19.5 16.3 -16.8 19.5 -11.3Z" stroke="#FF6600" fill="none" stroke-width="20"></path></g><g transform="translate(3 446)"><path d="M17.8 -10.7C21.1 -4.4 20.6 3.6 17 8.9C13.4 14.2 6.7 16.9 1 16.3C-4.8 15.7 -9.5 12 -12.5 7.1C-15.4 2.1 -16.5 -4 -14.1 -9.7C-11.7 -15.4 -5.9 -20.6 0.7 -21C7.2 -21.4 14.4 -16.9 17.8 -10.7Z" stroke="#FF6600" fill="none" stroke-width="20"></path></g><g transform="translate(443 319)"><path d="M16.5 -9.6C19.4 -4.5 18.4 2.8 15 7.4C11.7 12 5.8 13.9 -0.5 14.1C-6.7 14.4 -13.5 13 -16.9 8.4C-20.3 3.8 -20.4 -4 -17.1 -9.4C-13.7 -14.9 -6.8 -17.9 0 -17.9C6.8 -17.9 13.6 -14.8 16.5 -9.6Z" stroke="#FF6600" fill="none" stroke-width="20"></path></g><g transform="translate(439 550)"><path d="M21.7 -11C26 -5.3 25.6 4.7 21.2 12.4C16.9 20.1 8.4 25.5 -0.1 25.6C-8.6 25.6 -17.2 20.3 -21.4 12.7C-25.6 5.2 -25.2 -4.6 -20.9 -10.4C-16.6 -16.3 -8.3 -18.2 0.2 -18.3C8.8 -18.4 17.5 -16.8 21.7 -11Z" stroke="#FF6600" fill="none" stroke-width="20"></path></g><g transform="translate(421 918)"><path d="M11.7 -8.2C13.8 -3 13.3 2.2 11 6C8.6 9.8 4.3 12.1 -1.5 13C-7.4 13.9 -14.8 13.4 -17.5 9.4C-20.2 5.4 -18.3 -2.1 -14.6 -8.1C-10.9 -14.2 -5.5 -18.9 -0.4 -18.7C4.8 -18.5 9.5 -13.4 11.7 -8.2Z" stroke="#FF6600" fill="none" stroke-width="20"></path></g><g transform="translate(245 850)"><path d="M15.1 -8.6C19.3 -1.5 22.2 6.5 19.4 11.6C16.7 16.7 8.3 19 1.5 18.2C-5.3 17.3 -10.5 13.2 -13.4 8C-16.3 2.7 -16.8 -3.6 -14.2 -9.9C-11.6 -16.1 -5.8 -22.2 -0.1 -22.1C5.5 -22 11 -15.7 15.1 -8.6Z" stroke="#FF6600" fill="none" stroke-width="20"></path></g><g transform="translate(529 796)"><path d="M13.1 -9.6C15.4 -3.4 14.8 2.4 12.2 8.8C9.5 15.2 4.8 22.2 0.1 22.1C-4.6 22.1 -9.3 15.1 -13.9 7.6C-18.5 0 -23.1 -8 -20.8 -14.1C-18.5 -20.2 -9.2 -24.3 -1.9 -23.2C5.3 -22.1 10.7 -15.7 13.1 -9.6Z" stroke="#FF6600" fill="none" stroke-width="20"></path></g><g transform="translate(365 281)"><path d="M15.9 -9.2C18 -5.4 15.6 1.1 12.1 7C8.7 13 4.4 18.5 -0.6 18.8C-5.6 19.2 -11.2 14.4 -13.8 8.9C-16.4 3.4 -16.1 -2.9 -13.3 -7.1C-10.5 -11.3 -5.3 -13.4 0.8 -13.9C6.8 -14.3 13.7 -13.1 15.9 -9.2Z" stroke="#FF6600" fill="none" stroke-width="20"></path></g><g transform="translate(110 738)"><path d="M16.7 -10.7C20.3 -3.4 21 4.5 17.7 10.2C14.4 15.9 7.2 19.4 -0.9 19.9C-9 20.4 -17.9 18 -21.1 12.3C-24.3 6.6 -21.8 -2.2 -17.3 -10C-12.9 -17.8 -6.4 -24.5 0.1 -24.5C6.6 -24.6 13.1 -18 16.7 -10.7Z" stroke="#FF6600" fill="none" stroke-width="20"></path></g><g transform="translate(276 358)"><path d="M14.5 -7.2C17.7 -2.8 18.5 4.2 15.7 9.4C12.8 14.6 6.4 18.1 0.9 17.6C-4.5 17 -9 12.4 -12.6 6.8C-16.1 1.1 -18.7 -5.5 -16.4 -9.4C-14.1 -13.3 -7.1 -14.3 -0.7 -13.9C5.6 -13.4 11.3 -11.6 14.5 -7.2Z" stroke="#FF6600" fill="none" stroke-width="20"></path></g><g transform="translate(18 605)"><path d="M13.4 -8.4C15.7 -3.8 14.7 2 11.9 6.3C9.1 10.5 4.6 13.1 -1.8 14.1C-8.1 15.1 -16.2 14.5 -18.8 10.4C-21.5 6.3 -18.7 -1.5 -14.6 -7.1C-10.6 -12.7 -5.3 -16.1 0.1 -16.2C5.6 -16.3 11.2 -13 13.4 -8.4Z" stroke="#FF6600" fill="none" stroke-width="20"></path></g><g transform="translate(373 656)"><path d="M16.1 -9.8C19 -4.2 18.3 2.9 15 9.2C11.7 15.4 5.8 20.7 0.1 20.7C-5.6 20.6 -11.3 15.2 -14.6 8.9C-17.9 2.7 -18.9 -4.4 -16.1 -9.9C-13.3 -15.4 -6.6 -19.3 0 -19.3C6.6 -19.3 13.2 -15.3 16.1 -9.8Z" stroke="#FF6600" fill="none" stroke-width="20"></path></g><g transform="translate(532 952)"><path d="M11.7 -6.8C14.4 -2.1 15.2 3.6 13 7.4C10.7 11.3 5.4 13.3 0.6 12.9C-4.2 12.6 -8.4 9.9 -11.5 5.6C-14.7 1.3 -16.7 -4.8 -14.6 -9.1C-12.5 -13.5 -6.2 -16.2 -0.9 -15.7C4.5 -15.2 9 -11.5 11.7 -6.8Z" stroke="#FF6600" fill="none" stroke-width="20"></path></g><g transform="translate(397 162)"><path d="M19 -12.7C22.9 -4.3 23 4.5 19.3 12.9C15.5 21.3 7.7 29.3 -0.1 29.3C-7.9 29.4 -15.8 21.5 -20.5 12.6C-25.3 3.6 -26.9 -6.4 -22.9 -14.9C-19 -23.3 -9.5 -30.2 -1 -29.6C7.6 -29.1 15.2 -21.1 19 -12.7Z" stroke="#FF6600" fill="none" stroke-width="20"></path></g><g transform="translate(96 832)"><path d="M13.8 -7.8C17.5 -1.5 19.9 5.7 17.4 11.2C14.9 16.6 7.4 20.4 0.5 20C-6.4 19.7 -12.7 15.4 -16.8 9C-20.9 2.7 -22.6 -5.7 -19.4 -11.7C-16.2 -17.6 -8.1 -21.2 -1.5 -20.3C5 -19.4 10 -14.1 13.8 -7.8Z" stroke="#FF6600" fill="none" stroke-width="20"></path></g><g transform="translate(42 13)"><path d="M21.9 -12.7C26.2 -5.2 25.9 4.8 21.5 11.5C17.1 18.3 8.6 21.8 1.2 21.1C-6.1 20.4 -12.3 15.5 -16.5 8.8C-20.8 2.2 -23.1 -6.2 -20 -13C-17 -19.8 -8.5 -24.8 0.2 -24.9C8.8 -25 17.6 -20.1 21.9 -12.7Z" stroke="#FF6600" fill="none" stroke-width="20"></path></g><g transform="translate(25 885)"><path d="M16.8 -10.3C21 -2.4 23.1 6 19.9 12.7C16.8 19.4 8.4 24.3 0.4 24.1C-7.6 23.8 -15.2 18.5 -17.9 12C-20.6 5.6 -18.5 -1.9 -14.7 -9.5C-10.9 -17.1 -5.5 -24.8 0.4 -25.1C6.3 -25.3 12.6 -18.1 16.8 -10.3Z" stroke="#FF6600" fill="none" stroke-width="20"></path></g><g transform="translate(454 466)"><path d="M17.2 -9.4C21.1 -3.2 22.3 5.2 19 12C15.6 18.8 7.8 24.1 0.8 23.7C-6.3 23.2 -12.5 17 -17.6 9.2C-22.6 1.4 -26.4 -8 -23.3 -13.8C-20.2 -19.6 -10.1 -21.7 -1.7 -20.8C6.7 -19.8 13.3 -15.7 17.2 -9.4Z" stroke="#FF6600" fill="none" stroke-width="20"></path></g><g transform="translate(258 735)"><path d="M15.5 -9.3C18 -4.7 16.3 1.9 13.1 6.4C9.8 11 4.9 13.5 0.5 13.2C-4 12.9 -8 9.9 -11.4 5.3C-14.9 0.6 -17.8 -5.7 -15.8 -9.9C-13.8 -14.2 -6.9 -16.5 -0.2 -16.4C6.5 -16.3 13.1 -13.8 15.5 -9.3Z" stroke="#FF6600" fill="none" stroke-width="20"></path></g><g transform="translate(230 522)"><path d="M14.4 -9.8C16.6 -4.5 14.9 1.6 11.8 6.7C8.8 11.8 4.4 16 -0.1 16C-4.5 16.1 -9 11.9 -12.5 6.6C-16 1.2 -18.5 -5.5 -16.2 -10.8C-14 -16.2 -7 -20.3 -0.4 -20C6.1 -19.8 12.2 -15.2 14.4 -9.8Z" stroke="#FF6600" fill="none" stroke-width="20"></path></g><g transform="translate(168 308)"><path d="M17.1 -9.9C19.8 -5.2 18 2.1 14.4 8.2C10.8 14.3 5.4 19.2 -0.3 19.4C-6 19.6 -12.1 15 -15.5 9C-18.8 3.1 -19.5 -4.3 -16.5 -9.2C-13.5 -14.1 -6.7 -16.5 0.2 -16.6C7.2 -16.7 14.4 -14.6 17.1 -9.9Z" stroke="#FF6600" fill="none" stroke-width="20"></path></g><g transform="translate(38 358)"><path d="M20.4 -13.8C23.6 -6.4 21.2 2.2 16.8 9.7C12.5 17.1 6.3 23.3 0.2 23.2C-5.8 23.1 -11.6 16.6 -14.6 9.9C-17.6 3.3 -17.8 -3.6 -14.9 -10.9C-12 -18.2 -6 -25.9 1.3 -26.7C8.7 -27.5 17.3 -21.2 20.4 -13.8Z" stroke="#FF6600" fill="none" stroke-width="20"></path></g><g transform="translate(257 629)"><path d="M22.5 -12C27.7 -4 29.5 7 25.1 14.2C20.8 21.3 10.4 24.6 0.5 24.3C-9.3 24 -18.7 20.1 -21.7 13.7C-24.8 7.3 -21.5 -1.7 -16.9 -9.4C-12.2 -17.1 -6.1 -23.6 1.3 -24.4C8.6 -25.1 17.3 -20 22.5 -12Z" stroke="#FF6600" fill="none" stroke-width="20"></path></g><g transform="translate(363 498)"><path d="M14.3 -7.9C17.9 -2.1 19.7 5.2 17 10.6C14.3 16 7.2 19.5 0.8 19C-5.5 18.6 -11 14 -13.2 8.9C-15.5 3.8 -14.4 -2 -11.7 -7.4C-8.9 -12.8 -4.5 -17.8 0.4 -18.1C5.4 -18.3 10.7 -13.8 14.3 -7.9Z" stroke="#FF6600" fill="none" stroke-width="20"></path></g><g transform="translate(532 699)"><path d="M11.8 -8C14.2 -2.6 14.3 2.8 12 7.2C9.6 11.6 4.8 14.9 -1.5 15.8C-7.8 16.6 -15.6 15.1 -18.6 10.3C-21.5 5.6 -19.7 -2.3 -15.8 -8.5C-11.9 -14.7 -5.9 -19.2 -0.6 -18.8C4.7 -18.5 9.4 -13.3 11.8 -8Z" stroke="#FF6600" fill="none" stroke-width="20"></path></g><g transform="translate(75 229)"><path d="M22.4 -13.1C27.9 -3.5 30.3 7.7 26 15.2C21.8 22.8 10.9 26.7 1.9 25.6C-7 24.4 -14 18.3 -17.4 11.3C-20.8 4.2 -20.5 -3.8 -17 -12.2C-13.5 -20.6 -6.8 -29.6 0.9 -30.1C8.5 -30.6 17 -22.6 22.4 -13.1Z" stroke="#FF6600" fill="none" stroke-width="20"></path></g><g transform="translate(109 114)"><path d="M16.9 -10.8C19.6 -5.2 17.7 2 14.2 9.4C10.6 16.7 5.3 24.2 0.1 24.2C-5 24.1 -10.1 16.4 -13.7 9C-17.3 1.7 -19.4 -5.4 -16.9 -10.9C-14.4 -16.4 -7.2 -20.3 0 -20.3C7.1 -20.3 14.3 -16.3 16.9 -10.8Z" stroke="#FF6600" fill="none" stroke-width="20"></path></g><g transform="translate(207 429)"><path d="M20.5 -9.8C25.1 -3.9 26.3 6 22.3 11.8C18.3 17.6 9.2 19.4 0.6 19.1C-8 18.7 -16 16.3 -19.8 10.6C-23.6 4.8 -23.2 -4.2 -19.2 -9.7C-15.2 -15.2 -7.6 -17.2 0.2 -17.3C8 -17.4 16 -15.6 20.5 -9.8Z" stroke="#FF6600" fill="none" stroke-width="20"></path></g><g transform="translate(182 925)"><path d="M24.4 -14.1C28.2 -7.6 25.4 2.7 20.3 9.5C15.1 16.2 7.5 19.4 -0.6 19.7C-8.8 20.1 -17.7 17.7 -21.8 11.6C-25.8 5.5 -25.2 -4.3 -20.8 -11.2C-16.3 -18 -8.2 -21.9 1.1 -22.6C10.3 -23.2 20.7 -20.5 24.4 -14.1Z" stroke="#FF6600" fill="none" stroke-width="20"></path></g><g transform="translate(311 3)"><path d="M16.1 -10.5C18.3 -5.3 16 1.3 12.6 6.1C9.1 10.8 4.6 13.7 -1.2 14.4C-6.9 15.1 -13.8 13.5 -17 8.9C-20.3 4.2 -19.9 -3.5 -16.4 -9.4C-13 -15.3 -6.5 -19.3 0.2 -19.4C6.9 -19.5 13.8 -15.7 16.1 -10.5Z" stroke="#FF6600" fill="none" stroke-width="20"></path></g><g transform="translate(430 70)"><path d="M14.8 -9.4C17.5 -3.9 16.9 2.8 13.8 8.7C10.8 14.7 5.4 20.1 -0.9 20.6C-7.2 21.1 -14.3 16.7 -17.4 10.7C-20.4 4.7 -19.4 -2.9 -15.8 -9C-12.2 -15.1 -6.1 -19.5 0 -19.5C6 -19.5 12.1 -15 14.8 -9.4Z" stroke="#FF6600" fill="none" stroke-width="20"></path></g><g transform="translate(337 876)"><path d="M12 -7.5C14.7 -2.2 15.5 3.6 13.2 7.7C10.9 11.8 5.5 14.2 0.2 14.1C-5 14 -10 11.3 -12.3 7.2C-14.6 3.1 -14.3 -2.5 -11.8 -7.7C-9.3 -12.9 -4.6 -17.8 0 -17.7C4.6 -17.7 9.2 -12.9 12 -7.5Z" stroke="#FF6600" fill="none" stroke-width="20"></path></g><g transform="translate(536 255)"><path d="M19 -11.2C22.1 -5.5 20.5 2.7 16.5 8.3C12.6 14 6.3 17 -0.9 17.6C-8.1 18.1 -16.1 16 -20.2 10.3C-24.3 4.6 -24.4 -4.8 -20.4 -11C-16.3 -17.2 -8.2 -20.2 -0.1 -20.2C7.9 -20.1 15.8 -16.9 19 -11.2Z" stroke="#FF6600" fill="none" stroke-width="20"></path></g><g transform="translate(96 455)"><path d="M17.3 -7.1C22.8 -0.4 28 9.4 25.1 15C22.1 20.6 11.1 21.9 0.2 21.8C-10.7 21.7 -21.4 20.2 -25 14.2C-28.5 8.3 -24.9 -2 -19.5 -8.5C-14.1 -15.1 -7.1 -18 -0.6 -17.7C5.9 -17.3 11.8 -13.8 17.3 -7.1Z" stroke="#FF6600" fill="none" stroke-width="20"></path></g><g transform="translate(156 617)"><path d="M24.9 -15C28.6 -7.9 25.6 2.6 20.3 9.1C15 15.7 7.5 18.4 0.9 17.8C-5.6 17.3 -11.2 13.5 -16.2 7.1C-21.2 0.7 -25.6 -8.3 -22.8 -14.9C-20 -21.6 -10 -25.8 0.3 -26C10.6 -26.1 21.1 -22.2 24.9 -15Z" stroke="#FF6600" fill="none" stroke-width="20"></path></g><g transform="translate(533 433)"><path d="M12.1 -6.9C15.4 -1.4 17.5 5 15.3 9.9C13.1 14.9 6.5 18.4 0.4 18.2C-5.7 17.9 -11.3 13.9 -14.1 8.6C-16.8 3.4 -16.6 -3.1 -13.8 -8.4C-11 -13.7 -5.5 -17.8 -0.5 -17.5C4.4 -17.2 8.9 -12.4 12.1 -6.9Z" stroke="#FF6600" fill="none" stroke-width="20"></path></g><g transform="translate(227 59)"><path d="M19.1 -11.4C21.7 -6.7 18.4 1 14.2 6.8C10 12.6 5 16.5 -0.2 16.6C-5.3 16.7 -10.7 13 -14.2 7.5C-17.8 2 -19.6 -5.2 -17 -10C-14.3 -14.8 -7.1 -17.2 0.6 -17.5C8.3 -17.9 16.6 -16.1 19.1 -11.4Z" stroke="#FF6600" fill="none" stroke-width="20"></path></g></g></svg>