<?xml version="1.0" encoding="UTF-8" standalone="no"?>

<svg xmlns:rdf="http://www.w3.org/1999/02/22-rdf-syntax-ns#" xmlns="http://www.w3.org/2000/svg" xmlns:cc="http://creativecommons.org/ns#" xmlns:dc="http://purl.org/dc/elements/1.1/" xmlns:svg="http://www.w3.org/2000/svg" xmlns:inkscape="http://www.inkscape.org/namespaces/inkscape" xmlns:sodipodi="http://sodipodi.sourceforge.net/DTD/sodipodi-0.dtd" xmlns:ns1="http://sozi.baierouge.fr" xmlns:xlink="http://www.w3.org/1999/xlink" id="svg3043" viewBox="0 0 744.09 1052.4" version="1.1" inkscape:version="0.91 r13725">
  <g id="layer1">
    <g id="g4132" transform="matrix(7.8131 0 0 7.8131 -1613.1 -1781.1)">
      <path id="path4071-6" style="fill:#ff6600" d="m272.12 284.45c-8.2502 0.22406-12.452-3.1866-16.035-5.1072-1.1851-0.6353-2.2107 0.49842-2.2107 0.49842s-2.0918 1.9118-2.506 7.5722c-0.55279 7.5548-1.5206 14.326-5.9846 21.679-0.19214 0.31647 1.465 12.203 1.1717 12.443-3.8797 3.1784-10.424 7.5877-12.901 5.5554-1.4897-1.2223-1.119-3.5166-1.4353-3.2449-2.2965 0.67941-0.52776 7.1525-1.1347 7.4244-5.13 2.2984-10.658 2.4655-13.497 1.4947-1.558-0.53286-1.4494-2.5693-2.5264-2.9166-3.2624-1.0522-4.7536 0.16879-9.3587 1.0686-0.25876-17.105 0.25254-54.548 0.25254-54.548s26.769-11.617 27.274-15.657c0.50507-4.0406 1.5152-14.647 3.5355-16.415 2.0203-1.7678 20.203-4.5457 20.203-4.5457l13.89 6.3134c9.5234 19.136-0.40311 20.604 0.97795 24.99 6.2023 12.611 2.077 12.537 0.28474 13.396z"/>
      <path id="path4111" style="fill:#ffffff" d="m213.12 327.01-6.875-16.518-2.5-0.17857-0.17857 17.232 5.625-1.1607z" transform="translate(2.5254 3.283)"/>
      <path id="path4073" style="fill:#ffffff" d="m234.86 240.58s5.5558 12.879 36.618 40.154c-4.5457 3.9143-18.814-5.0508-18.814-5.0508s-3.0669 1.2019-3.0955 4.3547c-0.20067 22.169-12.162 37.592-21.78 40.976-2.6966-15.066-1.2627-23.612-1.2627-23.612l5.3033-17.046-0.12627-28.284 2.0203-9.0914z" transform="translate(2.5254 3.283)"/>
      <path id="path4071" style="stroke:#000000;stroke-width:1px;fill:none" d="m269.71 281.36c-3.652 0.71513-12.452-3.1866-16.035-5.1072-1.1851-0.6353-2.2107 0.49842-2.2107 0.49842s-2.0918 1.9118-2.506 7.5722c-0.5528 7.5548-1.5206 14.326-5.9846 21.679-0.19214 0.31647 1.465 12.203 1.1717 12.443-3.8797 3.1784-10.424 7.5877-12.901 5.5554-1.4897-1.2223-1.119-3.5166-1.4353-3.2449-0.66811 0.19765-1.5604 0.63312-1.6989 1.5161-0.33774 2.1522 0.9946 5.7155 0.56422 5.9083-5.13 2.2984-10.658 2.4655-13.497 1.4947-1.558-0.53286-1.4494-2.5693-2.5264-2.9166-3.2624-1.0522-4.7536 0.16879-9.3587 1.0686-0.25876-17.105 0.25254-54.548 0.25254-54.548s26.769-11.617 27.274-15.657c0.50507-4.0406 1.5152-14.647 3.5355-16.415 2.0203-1.7678 20.203-4.5457 20.203-4.5457l13.89 6.3134c9.5234 19.136-0.40311 20.604 0.97795 24.99 6.2023 12.611 2.077 12.537 0.28474 13.396z" transform="translate(2.5254 3.283)"/>
      <path id="path4075" style="fill:#000000" d="m264.79 265.07a1.6415 1.6415 0 1 1 -3.283 0 1.6415 1.6415 0 1 1 3.283 0z" transform="translate(1.7678 2.6517)"/>
      <path id="path4075-3" style="fill:#000000" d="m274.25 283.71c-0.85927 0.2279-1.7344 0.29229-1.6364-0.50879 0.19827-1.621-0.42052-1.0232-0.23091-2.0324 0.26735-0.3953 1.5678-0.11197 2.1343 0.53428s0.59223 1.779-0.26703 2.0069z"/>
      <path id="path4095" style="stroke:#000000;stroke-width:1px;fill:#000000" d="m249.2 240.76s27.946-20.089 24.286-10c-3.6607 10.089-7.9464 17.143-7.9464 17.143s-9.2857-6.0714-16.339-7.1428z" transform="translate(2.5254 3.283)"/>
      <path id="path4099" style="fill:#ffffff" d="m257.01 242.79s12.545-11.585 10.134-4.7098c-2.4107 6.875-3.0804 8.3482-3.0804 8.3482-2.1952-1.1876-4.6076-2.7237-7.0536-3.6384z" transform="translate(2.5254 3.283)"/>
      <path id="path4097" style="stroke:#000000;stroke-width:1px;fill:#000000" d="m271.61 249.33s22.152-1.6337 14.196 4.1964c-8.8588 6.4924-13.45 7.2094-13.482 6.3393" transform="translate(2.5254 3.283)"/>
      <path id="path4101" style="stroke:#000000;stroke-width:1px;fill:#000000" d="m214.38 329.06s11.339 26.25 22.5 23.482c11.161-2.7678 0.53571-7.6786 0.53571-7.6786s-3.8393-1.25-8.9286-17.321c0.55671 1.3405-13.144 4.6482-14.107 1.5179z" transform="translate(2.5254 3.283)"/>
      <path id="path4103" style="stroke:#000000;stroke-width:1px;fill:#000000" d="m231.61 324.06s10.221 22.26 18.491 22.382c3.9856 0.0588 5.0572-1.7483 5.3485-2.7392 0.60649-2.0629-1.0655-2.0653-2.6515-3.6016-2.2676-2.1966-4.9268-8.0734-8.6571-21.786-10.179 8.8393-12.531 5.7449-12.531 5.7449z" transform="translate(2.5254 3.283)"/>
      <path id="path4105" style="stroke:#000000;stroke-linecap:round;stroke-width:1px;fill:none" d="m213.57 327.72s-7.2321-15.446-7.3214-17.768" transform="translate(2.5254 3.283)"/>
      <path id="path4107" style="stroke:#000000;stroke-linecap:round;stroke-width:1px;fill:none" d="m224.46 294.06s0.85769 0.80823 1.1607 7.2321c0.44643 9.4643 3.3036 28.304 3.3036 28.304" transform="translate(2.5254 3.283)"/>
      <path id="path4109" style="stroke:#000000;stroke-width:1px;fill:none" d="m228.3 321.56s5.7143-2.4107 14.732-15.446" transform="translate(2.5254 3.283)"/>
    </g>
  </g>
  <metadata>
    <rdf:RDF>
      <cc:Work>
        <dc:format>image/svg+xml</dc:format>
        <dc:type rdf:resource="http://purl.org/dc/dcmitype/StillImage"/>
        <cc:license rdf:resource="http://creativecommons.org/licenses/publicdomain/"/>
        <dc:publisher>
          <cc:Agent rdf:about="http://openclipart.org/">
            <dc:title>Openclipart</dc:title>
          </cc:Agent>
        </dc:publisher>
        <dc:title>Stupid Fox</dc:title>
        <dc:date>2011-06-08T06:10:50</dc:date>
        <dc:description>vector stupidfox</dc:description>
        <dc:source>https://openclipart.org/detail/143557/stupid-fox-by-rezorcin</dc:source>
        <dc:creator>
          <cc:Agent>
            <dc:title>rezorcin</dc:title>
          </cc:Agent>
        </dc:creator>
        <dc:subject>
          <rdf:Bag>
            <rdf:li>Stupid fox</rdf:li>
            <rdf:li>fox</rdf:li>
            <rdf:li>honey</rdf:li>
          </rdf:Bag>
        </dc:subject>
      </cc:Work>
      <cc:License rdf:about="http://creativecommons.org/licenses/publicdomain/">
        <cc:permits rdf:resource="http://creativecommons.org/ns#Reproduction"/>
        <cc:permits rdf:resource="http://creativecommons.org/ns#Distribution"/>
        <cc:permits rdf:resource="http://creativecommons.org/ns#DerivativeWorks"/>
      </cc:License>
    </rdf:RDF>
  </metadata>
</svg>
